<?xml version="1.0" encoding="UTF-8" standalone="no"?>
<svg
   width="24"
   height="24"
   viewBox="0 0 24 24"
   fill="none"
   version="1.1"
   id="svg154"
   sodipodi:docname="app.svg"
   inkscape:version="1.2.2 (b0a8486541, 2022-12-01)"
   xml:space="preserve"
   xmlns:inkscape="http://www.inkscape.org/namespaces/inkscape"
   xmlns:sodipodi="http://sodipodi.sourceforge.net/DTD/sodipodi-0.dtd"
   xmlns:xlink="http://www.w3.org/1999/xlink"
   xmlns="http://www.w3.org/2000/svg"
   xmlns:svg="http://www.w3.org/2000/svg"
   xmlns:sketch="http://www.bohemiancoding.com/sketch/ns"><sodipodi:namedview
     id="namedview156"
     pagecolor="#ffffff"
     bordercolor="#000000"
     borderopacity="1"
     inkscape:showpageshadow="0"
     inkscape:pageopacity="1"
     inkscape:pagecheckerboard="false"
     inkscape:deskcolor="#ffffff"
     showgrid="true"
     inkscape:zoom="32"
     inkscape:cx="9.609375"
     inkscape:cy="15.453125"
     inkscape:window-width="1920"
     inkscape:window-height="1052"
     inkscape:window-x="0"
     inkscape:window-y="0"
     inkscape:window-maximized="1"
     inkscape:current-layer="svg154"
     showguides="true"
     guidecolor="#ff0000"
     guideopacity="1"
     inkscape:lockguides="true"
     showborder="true"
     borderlayer="true"><inkscape:grid
       type="xygrid"
       id="grid356"
       color="#000000"
       opacity="0.10196078"
       empcolor="#000000"
       empopacity="0.10196078"
       snapvisiblegridlinesonly="true"
       enabled="true"
       visible="true"
       dotted="false" /><sodipodi:guide
       position="4,12"
       orientation="-1,0"
       id="guide764"
       inkscape:locked="true"
       inkscape:label="left-circle"
       inkscape:color="rgb(255,0,0)" /><sodipodi:guide
       position="5,12"
       orientation="-1,0"
       id="guide2218"
       inkscape:locked="true"
       inkscape:label="left-square"
       inkscape:color="rgb(255,0,0)" /><sodipodi:guide
       position="12,20"
       orientation="0,1"
       id="guide2220"
       inkscape:locked="true"
       inkscape:label="top-circle"
       inkscape:color="rgb(255,0,0)" /><sodipodi:guide
       position="12,5"
       orientation="0,1"
       id="guide2222"
       inkscape:locked="true"
       inkscape:label="bottom-square"
       inkscape:color="rgb(255,0,0)" /><sodipodi:guide
       position="12,4"
       orientation="0,1"
       id="guide2224"
       inkscape:locked="true"
       inkscape:label="bottom-circle"
       inkscape:color="rgb(255,0,0)" /><sodipodi:guide
       position="19,12"
       orientation="-1,0"
       id="guide2226"
       inkscape:locked="true"
       inkscape:label="right-square"
       inkscape:color="rgb(255,0,0)" /><sodipodi:guide
       position="20,12"
       orientation="-1,0"
       id="guide2228"
       inkscape:locked="true"
       inkscape:label="right-circle"
       inkscape:color="rgb(255,0,0)" /><sodipodi:guide
       position="12,19"
       orientation="0,1"
       id="guide2230"
       inkscape:locked="true"
       inkscape:label="top-square"
       inkscape:color="rgb(255,0,0)" /><sodipodi:guide
       position="12,12"
       orientation="1,0"
       id="guide765"
       inkscape:locked="true" /><sodipodi:guide
       position="12,12"
       orientation="0,-1"
       id="guide767"
       inkscape:locked="true" /><sodipodi:guide
       position="12,12"
       orientation="0.70710678,0.70710678"
       id="guide2266"
       inkscape:locked="true"
       inkscape:label=""
       inkscape:color="rgb(255,0,0)" /><sodipodi:guide
       position="12,12"
       orientation="-0.70710678,0.70710678"
       id="guide2994"
       inkscape:locked="true"
       inkscape:label=""
       inkscape:color="rgb(255,0,0)" /><sodipodi:guide
       position="3,12"
       orientation="-1,0"
       id="guide131543"
       inkscape:locked="true"
       inkscape:label="left-horizontal"
       inkscape:color="rgb(255,0,0)" /><sodipodi:guide
       position="12,21"
       orientation="0,1"
       id="guide131545"
       inkscape:locked="true"
       inkscape:label="top-vertical"
       inkscape:color="rgb(255,0,0)" /><sodipodi:guide
       position="21,12"
       orientation="-1,0"
       id="guide131547"
       inkscape:locked="true"
       inkscape:label="right-horizontal"
       inkscape:color="rgb(255,0,0)" /><sodipodi:guide
       position="12,3"
       orientation="0,1"
       id="guide131549"
       inkscape:locked="true"
       inkscape:label="bottom-vertical"
       inkscape:color="rgb(255,0,0)" /></sodipodi:namedview><defs
     id="defs152"><linearGradient
       inkscape:collect="always"
       id="linearGradient491"><stop
         style="stop-color:#6c7ad8;stop-opacity:1"
         offset="0"
         id="stop487" /><stop
         style="stop-color:#c6cdff;stop-opacity:1"
         offset="1"
         id="stop489" /></linearGradient><linearGradient
       inkscape:collect="always"
       xlink:href="#linearGradient491"
       id="linearGradient493"
       x1="52.173294"
       y1="69.6875"
       x2="50.383526"
       y2="7.684659"
       gradientUnits="userSpaceOnUse"
       gradientTransform="matrix(0.24444444,0,0,0.24444444,-0.22222222,-0.22222222)" /></defs><path
     d="M 12,0.99999998 C 2,0.99999998 0.99999998,6 0.99999998,12 0.99999998,20 4.0000001,23 12,23 20,23 23,20 23,12 23,6 22,0.99999998 12,0.99999998 Z"
     sketch:type="MSShapeGroup"
     id="path6"
     style="font-variation-settings:normal;display:inline;opacity:1;vector-effect:none;fill:url(#linearGradient493);fill-opacity:1;stroke-width:1.11627;stroke-linecap:butt;stroke-linejoin:miter;stroke-miterlimit:4;stroke-dasharray:none;stroke-dashoffset:0;stroke-opacity:1;-inkscape-stroke:none;stop-color:#000000;stop-opacity:1"
     sodipodi:nodetypes="sssss"
     inkscape:label="Shape"
     sodipodi:insensitive="true" /><g
     id="g3955"
     transform="translate(16.843756,-0.3002006)"><path
       d="m -7.0282254,6.4709307 c 0.6920466,0 1.2530465,-0.5611557 1.2530465,-1.2533673 0,-0.6922207 -0.5609999,-1.2533672 -1.2530465,-1.2533672 -0.6920282,0 -1.2530281,0.5611465 -1.2530281,1.2533672 0,0.6922116 0.5609999,1.2533673 1.2530281,1.2533673 z"
       fill="#3947be"
       id="path258"
       style="stroke-width:0.916667" /><path
       d="m -2.4449296,6.4709307 c 0.6920832,0 1.2530831,-0.5611557 1.2530831,-1.2533673 0,-0.6922207 -0.5609999,-1.2533672 -1.2530831,-1.2533672 -0.6919915,0 -1.2529914,0.5611465 -1.2529914,1.2533672 0,0.6922116 0.5609999,1.2533673 1.2529914,1.2533673 z"
       fill="#3947be"
       id="path260"
       style="stroke-width:0.916667" /><path
       d="m -2.6008546,5.1372635 v 1.1762481 c -0.0055,0.5833757 -0.2423666,1.1406814 -0.6586248,1.549368 C -3.675646,8.2715754 -4.2371042,8.4982028 -4.8202875,8.4929228 -5.4032873,8.4979186 -5.9644706,8.271172 -6.3804538,7.8625129 -6.7964279,7.4538447 -7.0331754,6.896704 -7.0386845,6.3135116 V 5.1372635"
       stroke="#ffffff"
       stroke-linecap="round"
       stroke-linejoin="round"
       id="path262"
       style="fill:none;stroke-width:0.916667" /><path
       d="m -2.4194463,11.498324 c 0.4355083,-0.468233 1.0048499,-0.79057 1.63047473,-0.922854 l 0.61920822,-0.04066 c 0.24016662,0.01988 0.47510824,0.08128 0.6942832,0.181445 0.3468666,0.202922 0.64762485,0.476089 0.88293315,0.801872 0.3470499,0.4675 0.5856582,1.0065 0.6984999,1.577766 0.019617,0.1947 0.026217,0.390409 0.0198,0.586025 C 1.9839446,13.54011 1.9371029,13.324235 1.8296696,13.160518 1.693453,12.93144 1.522953,12.724732 1.324128,12.547357 1.0378531,12.266674 0.65431982,12.107449 0.25346156,12.10314 c -0.14904997,0.0198 -0.3127666,-0.0073 -0.45136658,0.05317 -0.42533325,0.09488 -0.78191651,0.357683 -1.08524148,0.653858 -0.087542,0.114675 -0.2022166,0.215875 -0.2898499,0.33055 -0.080208,0.148042 -0.1948833,0.282609 -0.262625,0.437983 -0.2320999,0.446325 -0.3647416,0.937567 -0.3888499,1.440084 0.020808,0.194975 0.020808,0.391049 0.040608,0.586024 0.054267,0.128242 0.027133,0.312859 0.175175,0.383717 0.1002833,0.0093 0.2005666,-0.01696 0.2835249,-0.07407 0.224125,-0.162983 0.4275333,-0.352825 0.6056416,-0.565125 0.22934995,-0.188741 0.39095825,-0.438991 0.60674155,-0.640291 0.12099997,-0.09488 0.20230829,-0.223117 0.3127666,-0.312858 0.22293329,-0.219359 0.46740824,-0.415709 0.72975819,-0.586025 0.20322497,-0.122742 0.43596659,-0.188009 0.67338316,-0.188742 0.14245,0.0187 0.279675,0.06591 0.403425,0.138783 0.1237499,0.07297 0.2315499,0.170134 0.3169832,0.285634 0.242275,0.343108 0.416075,0.729758 0.5118666,1.138683 0.031992,0.212025 0.050142,0.425883 0.054175,0.640291 -0.020625,0.724442 -0.1477666,1.441917 -0.3773916,2.129325 -0.082042,0.241633 -0.1929583,0.472358 -0.3304583,0.687225 -0.046933,0.05427 -0.073975,0.134475 -0.1407083,0.155375 0.00623,-0.141808 0.0605,-0.283617 0.073975,-0.424417 0.023925,-0.156291 0.030525,-0.314691 0.0198,-0.472358 0.0407,-0.241908 -0.00623,-0.484917 -0.013475,-0.729942 -0.0605,-0.241908 -0.066733,-0.498483 -0.1408,-0.729941 -0.03905,-0.172242 -0.1025749,-0.337975 -0.1886499,-0.49225 -0.048858,-0.0968 -0.112475,-0.185533 -0.1887417,-0.262717 -0.098633,-0.07938 -0.21807491,-0.1287 -0.34393322,-0.141808 -0.094875,0.01962 -0.1874583,0.04904 -0.27628328,0.08754 -0.20918329,0.145291 -0.39535826,0.321016 -0.55256656,0.5214 -0.15427497,0.134566 -0.28251661,0.296175 -0.46493324,0.404616 -0.25538329,0.161609 -0.5524749,0.303417 -0.8621248,0.249242 -0.4242333,-0.0198 -0.8151915,-0.215875 -1.1790165,-0.417175 -0.1688499,-0.102392 -0.3249582,-0.224583 -0.4649332,-0.363917 -0.3444833,-0.3608 -0.5678749,-0.820049 -0.6390999,-1.313858 -0.046292,-0.148133 -0.05555,-0.30525 -0.027042,-0.457783 -0.00733,-0.606925 0.18865,-1.19295 0.4440333,-1.739375 0.1354833,-0.253366 0.2958083,-0.492616 0.4784999,-0.714266 0.075625,-0.110917 0.1645416,-0.212117 0.2648249,-0.3014 z"
       fill="#ffffff"
       id="path264"
       style="stroke-width:0.916667" /><path
       d="m -7.2628278,19.672697 c -0.4354716,0.468234 -1.0049048,0.790534 -1.6304472,0.922808 l -0.6254874,0.0407 c -0.2399741,-0.0198 -0.4746224,-0.08158 -0.6932476,-0.182508 -0.347545,-0.202033 -0.648459,-0.475291 -0.882979,-0.8019 -0.34793,-0.466858 -0.587271,-1.005491 -0.700553,-1.576666 -0.02013,-0.1947 -0.02675,-0.3905 -0.0198,-0.586025 0.140736,0.141808 0.188687,0.357683 0.296065,0.5214 0.148032,0.214775 0.296065,0.451458 0.505597,0.613158 0.28621,0.280683 0.669826,0.439817 1.0706294,0.444217 0.1480324,-0.0198 0.3127482,0.0072 0.451394,-0.05317 0.4242883,-0.09497 0.7818616,-0.357683 1.0852232,-0.653858 0.087569,-0.114675 0.2011991,-0.215875 0.2887682,-0.33055 0.081317,-0.148133 0.1959833,-0.282608 0.2627075,-0.437983 0.2339883,-0.446417 0.3674183,-0.938667 0.3909308,-1.442192 -0.019809,-0.194975 -0.019809,-0.39105 -0.040663,-0.586025 -0.053167,-0.128241 -0.026061,-0.312858 -0.1751291,-0.383716 -0.099926,-0.0091 -0.1998791,0.01714 -0.2825166,0.07407 -0.2242166,0.163258 -0.4279366,0.353008 -0.6067232,0.565124 -0.228305,0.188742 -0.3898858,0.437984 -0.6056783,0.640292 -0.1209266,0.09487 -0.2022441,0.223117 -0.3127482,0.312858 -0.2231533,0.219084 -0.4676099,0.415433 -0.7297407,0.586025 -0.203298,0.12265 -0.43603,0.187825 -0.673438,0.188742 -0.142541,-0.01879 -0.279858,-0.066 -0.403782,-0.138967 -0.123924,-0.07287 -0.231935,-0.16995 -0.317616,-0.28545 -0.241514,-0.343566 -0.415241,-0.730033 -0.511857,-1.138683 -0.03117,-0.212117 -0.04892,-0.425975 -0.05317,-0.640292 0.02012,-0.724533 0.14729,-1.442099 0.377382,-2.129324 0.0821,-0.241358 0.192684,-0.472083 0.329423,-0.687225 0.04691,-0.05427 0.07401,-0.134567 0.141771,-0.155375 -0.0073,0.141808 -0.06046,0.283617 -0.07401,0.424417 -0.02372,0.156291 -0.03071,0.3146 -0.02085,0.472358 -0.03961,0.241908 0.0073,0.484916 0.01356,0.729941 0.06151,0.241909 0.06776,0.498484 0.141772,0.729942 0.03902,0.174717 0.103666,0.34265 0.191821,0.498483 0.04884,0.09689 0.112503,0.185533 0.188687,0.262717 0.09826,0.07993 0.217965,0.128883 0.344016,0.1408 0.09488,-0.01971 0.187201,-0.05014 0.27522,-0.09066 0.209623,-0.144741 0.3959451,-0.320558 0.5525117,-0.521399 0.1553292,-0.134567 0.2835616,-0.296175 0.4649516,-0.404617 0.2564466,-0.161608 0.5525116,-0.303417 0.862134,-0.249242 0.4253241,0.0198 0.815219,0.215875 1.1790439,0.417084 0.1690975,0.102116 0.325215,0.224308 0.4649424,0.363916 0.3448316,0.360708 0.5685899,0.82005 0.6400899,1.31395 0.045742,0.148133 0.055092,0.30525 0.027133,0.457783 0.00623,0.606925 -0.1887417,1.19295 -0.444125,1.738275 -0.1352999,0.253458 -0.2956249,0.4928 -0.478509,0.714358 -0.074653,0.111283 -0.1629008,0.21285 -0.2626983,0.302408 z"
       fill="#ffffff"
       id="path266"
       style="stroke-width:0.916667" /><path
       d="m -5.9763872,12.031182 c 0.1498749,-0.06939 0.3133166,-0.10505 0.4784999,-0.104225 0.2875583,-0.03712 0.5788749,0.02979 0.8214248,0.188742 0.1282417,0.113666 0.2762833,0.228341 0.3367833,0.397283 0.038317,0.09891 0.054633,0.205058 0.04785,0.310933 -0.00688,0.105875 -0.036758,0.209 -0.08745,0.302225 -0.1244833,0.254009 -0.3313749,0.458425 -0.5869416,0.579792 -0.1816833,0.100741 -0.3845416,0.157575 -0.5921665,0.165733 -0.223575,0.03071 -0.4513666,0.0027 -0.6609166,-0.08131 -0.1313583,-0.04913 -0.2498832,-0.127325 -0.3466832,-0.2288 -0.096708,-0.101567 -0.1692717,-0.223667 -0.21208,-0.357225 -0.081317,-0.194975 0.00625,-0.41085 0.087569,-0.586025 0.1712608,-0.265192 0.4208691,-0.470433 0.7141107,-0.587125 z"
       fill="#ffffff"
       id="path268"
       style="stroke-width:0.916667" /><path
       d="m -5.9357789,14.557882 c 0.1678416,-0.303509 0.5118666,-0.457784 0.8486498,-0.47135 0.1748083,0.01155 0.3460416,0.05463 0.5055416,0.127233 0.1129333,0.04547 0.21395,0.116142 0.2956249,0.206433 0.081583,0.09029 0.141625,0.198 0.1756333,0.314875 0.00275,0.27995 0.029975,0.559075 0.081308,0.834258 0.1480416,0.572459 0.5389082,1.037575 0.9558998,1.442192 0.2085416,0.241908 0.4920665,0.417083 0.7006082,0.666325 -0.3211083,-0.0071 -0.6409332,-0.04208 -0.9559915,-0.104317 -0.3892166,-0.06142 -0.7637665,-0.193967 -1.1050415,-0.39105 -0.1983666,-0.09781 -0.3830749,-0.221191 -0.5493582,-0.367033 -0.2635416,-0.211108 -0.4909666,-0.463558 -0.6734749,-0.747633 -0.2181666,-0.326242 -0.3523666,-0.70125 -0.3909582,-1.091842 0.013292,-0.14465 0.050967,-0.286091 0.1115587,-0.418091 z"
       fill="#ffffff"
       id="path270"
       style="stroke-width:0.916667" /></g></svg>
