<svg width="24" height="24" viewBox="0 0 24 24" fill="none" xmlns="http://www.w3.org/2000/svg">
<path fill-rule="evenodd" clip-rule="evenodd" d="M9.3775 0.123915C9.50824 0.125307 9.6332 0.108652 9.75239 0.073954C11.3187 -0.0286516 12.8849 -0.0244899 14.451 0.0864444C15.871 0.197086 17.2456 0.505183 18.5748 1.01073C20.7846 1.92048 22.2966 3.49843 23.1109 5.74457C23.5766 7.0969 23.8516 8.4875 23.9357 9.91634C24.0521 11.7106 24.0105 13.5009 23.8107 15.2872C23.6612 16.5427 23.3363 17.7501 22.836 18.9094C21.9081 20.9194 20.4044 22.3058 18.3249 23.0687C16.6398 23.6381 14.9069 23.9378 13.1264 23.968C11.1236 24.0721 9.14087 23.9222 7.17815 23.5183C3.56552 22.7136 1.337 20.5111 0.49263 16.9109C0.134306 15.2903 -0.0281463 13.6499 0.00527377 11.9897C-0.0347169 10.2244 0.152728 8.4841 0.567607 6.76878C1.45278 3.40263 3.58964 1.31674 6.97821 0.511116C7.7678 0.318078 8.56756 0.18901 9.3775 0.123915Z" fill="url(#paint0_linear_14_2)"/>
<path d="M9.61694 5.28647C10.3719 5.28647 10.9839 4.6743 10.9839 3.91916C10.9839 3.16401 10.3719 2.55185 9.61694 2.55185C8.862 2.55185 8.25 3.16401 8.25 3.91916C8.25 4.6743 8.862 5.28647 9.61694 5.28647Z" fill="#3947BE"/>
<path d="M14.6169 5.28647C15.3719 5.28647 15.9839 4.6743 15.9839 3.91916C15.9839 3.16401 15.3719 2.55185 14.6169 2.55185C13.862 2.55185 13.25 3.16401 13.25 3.91916C13.25 4.6743 13.862 5.28647 14.6169 5.28647Z" fill="#3947BE"/>
<path d="M14.4468 3.83156V5.11474C14.4408 5.75115 14.1824 6.35912 13.7283 6.80496C13.2743 7.25081 12.6618 7.49804 12.0256 7.49228C11.3896 7.49773 10.7774 7.25037 10.3236 6.80456C9.86981 6.35874 9.61154 5.75095 9.60553 5.11474V3.83156" stroke="white" stroke-linecap="round" stroke-linejoin="round"/>
<path d="M14.6447 10.7709C15.1198 10.2601 15.7409 9.90846 16.4234 9.76415L17.0989 9.71979C17.3609 9.74148 17.6172 9.80846 17.8563 9.91773C18.2347 10.1391 18.5628 10.4371 18.8195 10.7925C19.1981 11.3025 19.4584 11.8905 19.5815 12.5137C19.6029 12.7261 19.6101 12.9396 19.6031 13.153C19.4484 12.9983 19.3973 12.7628 19.2801 12.5842C19.1315 12.3343 18.9455 12.1088 18.7286 11.9153C18.4163 11.6091 17.9979 11.4354 17.5606 11.4307C17.398 11.4523 17.2194 11.4227 17.0682 11.4887C16.6042 11.5922 16.2152 11.8789 15.8843 12.202C15.7888 12.3271 15.6637 12.4375 15.5681 12.5626C15.4806 12.7241 15.3555 12.8709 15.2816 13.0404C15.0284 13.5273 14.8837 14.0632 14.8574 14.6114C14.8801 14.8241 14.8801 15.038 14.9017 15.2507C14.9609 15.3906 14.9313 15.592 15.0928 15.6693C15.2022 15.6794 15.3116 15.6508 15.4021 15.5885C15.6466 15.4107 15.8685 15.2036 16.0628 14.972C16.313 14.7661 16.4893 14.4931 16.7247 14.2735C16.8567 14.17 16.9454 14.0301 17.0659 13.9322C17.3091 13.6929 17.5758 13.4787 17.862 13.2929C18.0837 13.159 18.3376 13.0878 18.5966 13.087C18.752 13.1074 18.9017 13.1589 19.0367 13.2384C19.1717 13.318 19.2893 13.424 19.3825 13.55C19.6468 13.9243 19.8364 14.3461 19.9409 14.7922C19.9758 15.0235 19.9956 15.2568 20 15.4907C19.9775 16.281 19.8388 17.0637 19.5883 17.8136C19.4988 18.0772 19.3778 18.3289 19.2278 18.5633C19.1766 18.6225 19.1471 18.71 19.0743 18.7328C19.0811 18.5781 19.1403 18.4234 19.155 18.2698C19.1811 18.0993 19.1883 17.9265 19.1766 17.7545C19.221 17.4906 19.1698 17.2255 19.1619 16.9582C19.0959 16.6943 19.0891 16.4144 19.0083 16.1619C18.9657 15.974 18.8964 15.7932 18.8025 15.6249C18.7492 15.5193 18.6798 15.4225 18.5966 15.3383C18.489 15.2517 18.3587 15.1979 18.2214 15.1836C18.1179 15.205 18.0169 15.2371 17.92 15.2791C17.6918 15.4376 17.4887 15.6293 17.3172 15.8479C17.1489 15.9947 17.009 16.171 16.81 16.2893C16.5314 16.4656 16.2073 16.6203 15.8695 16.5612C15.4067 16.5396 14.9802 16.3257 14.5833 16.1061C14.3991 15.9944 14.2288 15.8611 14.0761 15.7091C13.7003 15.3155 13.4566 14.8145 13.3789 14.2758C13.3284 14.1142 13.3183 13.9428 13.3494 13.7764C13.3414 13.1143 13.5552 12.475 13.8338 11.8789C13.9816 11.6025 14.1565 11.3415 14.3558 11.0997C14.4383 10.9787 14.5353 10.8683 14.6447 10.7709Z" fill="white"/>
<path d="M9.36101 19.6884C8.88595 20.1992 8.26475 20.5508 7.58234 20.6951L6.89999 20.7395C6.6382 20.7179 6.38222 20.6505 6.14372 20.5404C5.76458 20.32 5.43631 20.0219 5.18047 19.6656C4.80091 19.1563 4.53981 18.5687 4.41623 17.9456C4.39427 17.7332 4.38705 17.5196 4.39463 17.3063C4.54816 17.461 4.60047 17.6965 4.71761 17.8751C4.8791 18.1094 5.04059 18.3676 5.26917 18.544C5.5814 18.8502 5.99989 19.0238 6.43713 19.0286C6.59862 19.007 6.77831 19.0365 6.92956 18.9706C7.39242 18.867 7.7825 18.5804 8.11344 18.2573C8.20897 18.1322 8.33293 18.0218 8.42846 17.8967C8.51717 17.7351 8.64226 17.5884 8.71505 17.4189C8.97031 16.9319 9.11587 16.3949 9.14152 15.8456C9.11991 15.6329 9.11991 15.419 9.09716 15.2063C9.03916 15.0664 9.06873 14.865 8.90611 14.7877C8.7971 14.7778 8.68806 14.8064 8.59791 14.8685C8.35331 15.0466 8.13107 15.2536 7.93603 15.485C7.68697 15.6909 7.5107 15.9628 7.27529 16.1835C7.14337 16.287 7.05466 16.4269 6.93411 16.5248C6.69067 16.7638 6.42399 16.978 6.13803 17.1641C5.91625 17.2979 5.66236 17.369 5.40337 17.37C5.24787 17.3495 5.09807 17.298 4.96288 17.2184C4.82769 17.1389 4.70986 17.033 4.61639 16.907C4.35292 16.5322 4.1634 16.1106 4.058 15.6648C4.024 15.4334 4.00463 15.2001 4 14.9663C4.02195 14.1759 4.16068 13.3931 4.41169 12.6434C4.50125 12.3801 4.62189 12.1284 4.77106 11.8937C4.82223 11.8345 4.8518 11.7469 4.92572 11.7242C4.91776 11.8789 4.85976 12.0336 4.84498 12.1872C4.8191 12.3577 4.81148 12.5304 4.82223 12.7025C4.77902 12.9664 4.83019 13.2315 4.83702 13.4988C4.90412 13.7627 4.91094 14.0426 4.99168 14.2951C5.03425 14.4857 5.10477 14.6689 5.20094 14.8389C5.25422 14.9446 5.32367 15.0413 5.40678 15.1255C5.51397 15.2127 5.64456 15.2661 5.78207 15.2791C5.88557 15.2576 5.98629 15.2244 6.08231 15.1802C6.31099 15.0223 6.51425 14.8305 6.68505 14.6114C6.8545 14.4646 6.99439 14.2883 7.19227 14.17C7.47203 13.9937 7.79501 13.839 8.13278 13.8981C8.59677 13.9197 9.02211 14.1336 9.41901 14.3531C9.60348 14.4645 9.77379 14.5978 9.92622 14.7501C10.3024 15.1436 10.5465 15.6447 10.6245 16.1835C10.6744 16.3451 10.6846 16.5165 10.6541 16.6829C10.6609 17.345 10.4482 17.9843 10.1696 18.5792C10.022 18.8557 9.8471 19.1168 9.64759 19.3585C9.56615 19.4799 9.46988 19.5907 9.36101 19.6884Z" fill="white"/>
<path d="M10.7644 11.3522C10.9279 11.2765 11.1062 11.2376 11.2864 11.2385C11.6001 11.198 11.9179 11.271 12.1825 11.4444C12.3224 11.5684 12.4839 11.6935 12.5499 11.8778C12.5917 11.9857 12.6095 12.1015 12.6021 12.217C12.5946 12.3325 12.562 12.445 12.5067 12.5467C12.3709 12.8238 12.1452 13.0468 11.8664 13.1792C11.6682 13.2891 11.4469 13.3511 11.2204 13.36C10.9765 13.3935 10.728 13.3629 10.4994 13.2713C10.3561 13.2177 10.2268 13.1324 10.1212 13.0217C10.0157 12.9109 9.93654 12.7777 9.88984 12.632C9.80113 12.4193 9.89666 12.1838 9.98537 11.9927C10.1722 11.7034 10.4445 11.4795 10.7644 11.3522Z" fill="white"/>
<path d="M10.8087 14.1086C10.9918 13.7775 11.3671 13.6092 11.7345 13.5944C11.9252 13.607 12.112 13.654 12.286 13.7332C12.4092 13.7828 12.5194 13.8599 12.6085 13.9584C12.6975 14.0569 12.763 14.1744 12.8001 14.3019C12.8031 14.6073 12.8328 14.9118 12.8888 15.212C13.0503 15.8365 13.4767 16.3439 13.9316 16.7853C14.1591 17.0492 14.4684 17.2403 14.6959 17.5122C14.3456 17.5044 13.9967 17.4663 13.653 17.3984C13.2284 17.3314 12.8198 17.1868 12.4475 16.9718C12.2311 16.8651 12.0296 16.7305 11.8482 16.5714C11.5607 16.3411 11.3126 16.0657 11.1135 15.7558C10.8755 15.3999 10.7291 14.9908 10.687 14.5647C10.7015 14.4069 10.7426 14.2526 10.8087 14.1086Z" fill="white"/>
<defs>
<linearGradient id="paint0_linear_14_2" x1="12" y1="0" x2="12" y2="12" gradientUnits="userSpaceOnUse">
<stop stop-color="#C7CEFF"/>
<stop offset="1" stop-color="#6C7AD8"/>
</linearGradient>
</defs>
</svg>
