<?xml version="1.0" standalone="no"?>
<!DOCTYPE svg PUBLIC "-//W3C//DTD SVG 20010904//EN"
 "http://www.w3.org/TR/2001/REC-SVG-20010904/DTD/svg10.dtd">
<svg version="1.0" xmlns="http://www.w3.org/2000/svg"
 width="225.000000pt" height="225.000000pt" viewBox="0 0 225.000000 225.000000"
 preserveAspectRatio="xMidYMid meet">

<g transform="translate(0.000000,225.000000) scale(0.100000,-0.100000)"
fill="#FFFFFF" stroke="none">
<path d="M1001 1795 c-165 -46 -311 -168 -380 -316 -43 -93 -61 -170 -61 -266
l0 -63 -48 0 c-26 0 -53 -5 -60 -12 -9 -9 -12 -71 -12 -218 0 -188 2 -208 18
-223 16 -15 48 -17 238 -17 190 0 227 -3 282 -20 97 -30 185 -35 282 -16 159
33 287 117 377 248 62 92 93 182 100 296 l6 82 63 0 c104 0 104 1 104 233 0
158 -3 197 -16 215 -15 22 -19 22 -232 22 l-217 0 -80 32 c-70 27 -94 32 -195
35 -81 2 -131 -2 -169 -12z m129 -145 l0 -120 -135 0 -135 0 0 80 0 80 50 25
c53 27 145 53 193 54 l27 1 0 -120z m739 56 c8 -9 11 -73 9 -207 l-3 -194 -75
-3 -75 -3 -62 -62 -63 -61 0 62 0 62 -139 0 c-117 0 -140 2 -145 16 -3 9 -6
98 -6 199 0 165 2 185 18 194 10 6 118 11 273 11 206 0 259 -3 268 -14z
m-1051 -348 l3 -128 -26 0 c-23 0 -25 4 -25 42 l0 42 -43 -42 c-37 -36 -49
-42 -86 -42 l-43 0 7 56 c7 55 33 142 55 183 10 20 18 22 83 19 l72 -3 3 -127z
m462 37 c0 -108 13 -125 95 -125 48 0 55 -2 55 -20 0 -19 -7 -20 -130 -20
l-130 0 0 125 0 125 55 0 55 0 0 -85z m300 -145 c0 -18 -7 -20 -55 -20 -48 0
-55 2 -55 20 0 18 7 20 55 20 48 0 55 -2 55 -20z m-706 -120 c101 0 136 -3
145 -14 8 -9 11 -73 9 -207 l-3 -194 -269 -3 c-190 -2 -273 1 -282 9 -11 9
-14 52 -14 195 0 218 -2 214 99 214 l67 0 54 55 55 56 3 -56 3 -55 133 0z
m836 100 c0 -5 -5 -10 -11 -10 -5 0 -7 5 -4 10 3 6 8 10 11 10 2 0 4 -4 4 -10z
m-130 -82 l0 -32 33 32 c20 20 43 32 60 32 24 0 26 -2 21 -32 -13 -70 -27
-115 -55 -170 l-29 -58 -70 0 -70 0 0 130 0 130 55 0 55 0 0 -32z m-450 -373
l0 -95 -45 0 c-42 0 -58 11 -35 25 6 3 10 42 10 86 l0 79 35 0 35 0 0 -95z
m300 35 c0 -59 0 -60 -38 -79 -42 -21 -127 -46 -184 -54 l-38 -6 0 100 0 99
130 0 130 0 0 -60z"/>
<path d="M1521 1529 c-28 -72 -51 -135 -51 -140 0 -5 9 -9 21 -9 14 0 24 10
32 30 11 29 13 30 77 30 64 0 66 -1 77 -30 8 -20 18 -30 32 -30 12 0 21 3 21
7 0 4 -23 67 -51 140 -49 126 -53 133 -79 133 -26 0 -31 -7 -79 -131z m102 22
c24 -67 23 -71 -23 -71 -25 0 -40 5 -40 13 0 18 33 107 40 107 3 0 13 -22 23
-49z"/>
<path d="M730 1060 c0 -18 -7 -20 -65 -20 -51 0 -65 -3 -65 -15 0 -12 18 -15
106 -15 l106 0 -7 -27 c-3 -15 -16 -40 -28 -57 l-21 -29 -33 38 c-25 29 -36
36 -45 27 -8 -8 -4 -21 17 -52 32 -46 33 -43 -37 -80 -25 -14 -35 -25 -32 -35
8 -21 17 -19 74 16 l51 31 49 -26 c44 -24 48 -25 54 -9 4 10 4 19 -1 20 -4 2
-23 12 -41 23 l-33 20 26 34 c14 19 31 51 36 70 8 29 15 36 34 36 16 0 25 6
25 15 0 12 -14 15 -65 15 -58 0 -65 2 -65 20 0 13 -7 20 -20 20 -13 0 -20 -7
-20 -20z"/>
<path d="M630 385 c0 -8 9 -15 20 -15 18 0 20 -7 20 -55 0 -42 3 -55 15 -55
12 0 15 13 15 55 0 48 2 55 20 55 11 0 20 7 20 15 0 12 -13 15 -55 15 -42 0
-55 -3 -55 -15z"/>
<path d="M1160 330 c0 -56 3 -70 15 -70 12 0 15 14 15 70 0 56 -3 70 -15 70
-12 0 -15 -14 -15 -70z"/>
<path d="M1331 368 c-10 -16 -10 -23 -2 -26 6 -2 11 -19 11 -38 0 -38 23 -56
43 -34 9 10 9 14 0 17 -7 3 -13 15 -13 28 0 13 6 26 13 29 10 5 10 7 0 12 -7
3 -13 12 -13 20 0 21 -23 17 -39 -8z"/>
<path d="M842 359 c-30 -11 -20 -28 13 -21 16 3 25 0 25 -8 0 -7 -7 -10 -15
-6 -25 9 -45 -4 -45 -30 0 -26 -1 -26 53 -29 l37 -2 0 43 c0 33 -5 46 -19 54
-23 12 -19 12 -49 -1z m38 -70 c0 -5 -7 -9 -15 -9 -15 0 -20 12 -9 23 8 8 24
-1 24 -14z"/>
<path d="M968 363 c-26 -4 -28 -7 -28 -54 0 -60 23 -64 28 -6 2 24 8 37 17 37
15 0 29 -36 23 -59 -2 -8 3 -16 10 -18 8 -3 12 10 12 45 0 36 -4 52 -16 56 -9
3 -16 5 -17 5 -1 -1 -14 -4 -29 -6z"/>
<path d="M1078 363 c-29 -7 -23 -51 7 -59 14 -3 22 -10 19 -15 -3 -5 -13 -5
-24 1 -13 7 -19 6 -23 -5 -4 -9 4 -16 25 -20 56 -13 79 43 26 65 l-23 9 22 0
c21 1 45 21 24 21 -5 0 -15 2 -23 4 -7 2 -21 2 -30 -1z"/>
<path d="M1238 363 c-27 -7 -22 -23 6 -23 14 0 28 -5 32 -12 5 -7 0 -9 -14 -6
-12 3 -29 0 -39 -7 -29 -22 -5 -50 43 -50 37 0 39 2 42 32 2 22 -3 38 -17 52
-21 21 -23 22 -53 14z m37 -62 c7 -12 -12 -24 -25 -16 -11 7 -4 25 10 25 5 0
11 -4 15 -9z"/>
<path d="M1422 354 c-27 -18 -29 -55 -4 -77 25 -22 48 -21 72 3 23 23 25 40 8
62 -20 25 -51 30 -76 12z m48 -39 c0 -25 -23 -35 -35 -15 -10 16 2 40 20 40 9
0 15 -9 15 -25z"/>
<path d="M742 313 c2 -35 7 -48 18 -48 10 0 16 12 18 33 2 18 10 36 18 39 26
10 14 23 -22 23 l-35 0 3 -47z"/>
<path d="M1522 313 c4 -56 28 -73 28 -20 0 27 5 37 20 42 32 10 23 25 -16 25
l-35 0 3 -47z"/>
<path d="M1584 289 c-10 -17 13 -36 27 -22 12 12 4 33 -11 33 -5 0 -12 -5 -16
-11z"/>
</g>
</svg>
