<svg xmlns="http://www.w3.org/2000/svg" viewBox="0 0 178 165"><defs><style>.cls-1{fill:#6c7ad8;}.cls-2{fill:#3947be;}.cls-3{fill:none;stroke:#fff;stroke-linecap:round;stroke-linejoin:round;stroke-width:5px;}.cls-4{fill:#fff;}</style></defs><g id="Layer_5" data-name="Layer 5"><path class="cls-1" d="M11,23V173a15,15,0,0,0,15,15H174a15,15,0,0,0,15-15V23Z" transform="translate(-11 -23)"/></g><g id="Layer_1" data-name="Layer 1"><circle class="cls-2" cx="68.08" cy="17.59" r="8.08"/><circle class="cls-2" cx="110.92" cy="17.59" r="8.08"/><path class="cls-3" d="M121.85,39.82V51.1A21.1,21.1,0,0,1,100.56,72h0A21.1,21.1,0,0,1,79.28,51.1V39.82" transform="translate(-11 -23)"/></g><g id="Layer_4" data-name="Layer 4"><path id="path6" class="cls-4" d="M123.59,83.24a29.77,29.77,0,0,1,15.64-8.85l5.94-.39a20,20,0,0,1,6.66,1.74,27.71,27.71,0,0,1,8.47,7.69A37.61,37.61,0,0,1,167,98.56a42.17,42.17,0,0,1,.19,5.62c-1.36-1.36-1.81-3.43-2.84-5a25,25,0,0,0-4.85-5.88,14.9,14.9,0,0,0-10.27-4.26c-1.43.19-3-.07-4.33.51-4.08.91-7.5,3.43-10.41,6.27-.84,1.1-1.94,2.07-2.78,3.17-.77,1.42-1.87,2.71-2.52,4.2A33.41,33.41,0,0,0,125.46,117c.2,1.87.2,3.75.39,5.62.52,1.23.26,3,1.68,3.68a4.13,4.13,0,0,0,2.72-.71,32.68,32.68,0,0,0,5.81-5.42c2.2-1.81,3.75-4.21,5.82-6.14,1.16-.91,1.94-2.14,3-3a44.63,44.63,0,0,1,7-5.62,12.57,12.57,0,0,1,6.46-1.81,10.25,10.25,0,0,1,6.91,4.07,31.28,31.28,0,0,1,4.91,10.92,47.09,47.09,0,0,1,.52,6.14,70.81,70.81,0,0,1-3.62,20.42,30.31,30.31,0,0,1-3.17,6.59c-.45.52-.71,1.29-1.35,1.49.06-1.36.58-2.72.71-4.07a20.69,20.69,0,0,0,.19-4.53c.39-2.32-.06-4.65-.13-7-.58-2.32-.64-4.78-1.35-7a17.75,17.75,0,0,0-1.81-4.72,10,10,0,0,0-1.81-2.52,6.31,6.31,0,0,0-3.3-1.36,13.61,13.61,0,0,0-2.65.84,24.5,24.5,0,0,0-5.3,5c-1.48,1.29-2.71,2.84-4.46,3.88-2.45,1.55-5.3,2.91-8.27,2.39-4.07-.19-7.82-2.07-11.31-4a23.88,23.88,0,0,1-4.46-3.49,23,23,0,0,1-6.13-12.6,9.1,9.1,0,0,1-.26-4.39c-.07-5.82,1.81-11.44,4.26-16.68a41.58,41.58,0,0,1,4.59-6.85A15.74,15.74,0,0,1,123.59,83.24Z" transform="translate(-11 -23)"/><path id="path3742" class="cls-4" d="M77.13,161.63a29.77,29.77,0,0,1-15.64,8.85l-6,.39a19.73,19.73,0,0,1-6.65-1.75,27.35,27.35,0,0,1-8.47-7.69,37.51,37.51,0,0,1-6.72-15.12,40.61,40.61,0,0,1-.19-5.62c1.35,1.36,1.81,3.43,2.84,5,1.42,2.06,2.84,4.33,4.85,5.88a14.9,14.9,0,0,0,10.27,4.26c1.42-.19,3,.07,4.33-.51,4.07-.91,7.5-3.43,10.41-6.27.84-1.1,1.93-2.07,2.77-3.17.78-1.42,1.88-2.71,2.52-4.2a33.11,33.11,0,0,0,3.75-13.83c-.19-1.87-.19-3.75-.39-5.62-.51-1.23-.25-3-1.68-3.68a4.12,4.12,0,0,0-2.71.71,33.09,33.09,0,0,0-5.82,5.42c-2.19,1.81-3.74,4.2-5.81,6.14-1.16.91-1.94,2.14-3,3a45.09,45.09,0,0,1-7,5.62,12.6,12.6,0,0,1-6.46,1.81,10.29,10.29,0,0,1-6.92-4.07,31.64,31.64,0,0,1-4.91-10.92,48.88,48.88,0,0,1-.51-6.14,70.47,70.47,0,0,1,3.62-20.42,30.74,30.74,0,0,1,3.16-6.59c.45-.52.71-1.29,1.36-1.49-.07,1.36-.58,2.72-.71,4.07a21.32,21.32,0,0,0-.2,4.53c-.38,2.32.07,4.65.13,7,.59,2.32.65,4.78,1.36,7A17.41,17.41,0,0,0,40.55,119a10,10,0,0,0,1.81,2.52,6.15,6.15,0,0,0,3.3,1.35A12.29,12.29,0,0,0,48.3,122a24,24,0,0,0,5.3-5c1.49-1.29,2.72-2.84,4.46-3.88,2.46-1.55,5.3-2.91,8.27-2.39,4.08.19,7.82,2.07,11.31,4a23.47,23.47,0,0,1,4.46,3.49,23,23,0,0,1,6.14,12.6,9.23,9.23,0,0,1,.26,4.39c.06,5.82-1.81,11.44-4.26,16.67a41.37,41.37,0,0,1-4.59,6.85A15.46,15.46,0,0,1,77.13,161.63Z" transform="translate(-11 -23)"/><path id="path10" class="cls-4" d="M89.47,88.35a10.81,10.81,0,0,1,4.59-1,11.66,11.66,0,0,1,7.88,1.81c1.23,1.09,2.65,2.19,3.23,3.81a7,7,0,0,1-.38,5.88,12,12,0,0,1-5.63,5.56A12.75,12.75,0,0,1,93.48,106a12.49,12.49,0,0,1-6.34-.78,8.9,8.9,0,0,1-5.36-5.62c-.78-1.87.06-3.94.84-5.62A14.56,14.56,0,0,1,89.47,88.35Z" transform="translate(-11 -23)"/><path id="path12" class="cls-4" d="M89.86,112.58c1.61-2.91,4.91-4.39,8.14-4.52a13.92,13.92,0,0,1,4.85,1.22,7.71,7.71,0,0,1,4.52,5,46.09,46.09,0,0,0,.78,8c1.42,5.49,5.17,9.95,9.17,13.83,2,2.32,4.72,4,6.72,6.39a53.52,53.52,0,0,1-9.17-1,30.82,30.82,0,0,1-10.6-3.75A24.29,24.29,0,0,1,99,134.23a29.9,29.9,0,0,1-6.46-7.17,22.87,22.87,0,0,1-3.75-10.47A12.31,12.31,0,0,1,89.86,112.58Z" transform="translate(-11 -23)"/></g></svg>